<svg xmlns="http://www.w3.org/2000/svg" width="34" height="24" viewBox="0 0 34 24"><g><g><g/><g><g><path fill="#ff4b38" d="M33.554 14.827c.28.21.447.54.446.89v4.367c0 .615-.499 1.115-1.115 1.115h-1.279c-.468 1.398-1.776 2.415-3.33 2.415s-2.863-1.017-3.333-2.415H10.358c-.47 1.398-1.777 2.415-3.331 2.415-1.555 0-2.863-1.017-3.333-2.415h-2.58C.5 21.199 0 20.699 0 20.084V1.504C0 .89.499.39 1.115.39h17.464c.422 0 .809.238.997.616l1.456 2.914h5.814c.616 0 1.115.5 1.115 1.115v1.63l2.488 5.832zM8.328 20.084a1.3 1.3 0 1 0-2.6-.001 1.3 1.3 0 0 0 2.6.001zm19.634-7.368a.38.38 0 0 0 .14-.035.383.383 0 0 0 .17-.133.377.377 0 0 0 .03-.353l-2.1-4.831a.371.371 0 0 0-.341-.223h-3.937a.373.373 0 0 0-.371.372v4.83c0 .205.168.372.371.372zm1.608 7.368a1.3 1.3 0 1 0-2.6-.001 1.3 1.3 0 0 0 2.6.001z"/></g></g></g></g></svg>