<svg xmlns="http://www.w3.org/2000/svg" width="31" height="25" viewBox="0 0 31 25"><g><g><g/><g><g><path fill="#ff4b38" d="M28.582 6.67h-.842v9.255c0 1.441-.839 2.744-2.521 2.744H8.74v.44c0 1.274 1.449 2.56 2.937 2.56h12.599l4.82 2.834-.699-2.834h.185c1.487 0 2.158-1.283 2.158-2.56V8.867c0-1.274-.671-2.197-2.158-2.197z"/></g><g><path fill="#ff4b38" d="M22.762.24C24.445.24 26 1.736 26 3.178v11.6c0 1.441-1.554 2.462-3.238 2.462H8.76l-6.568 3.864 1.025-3.891C1.642 17.065 0 16.106 0 14.778v-11.6C0 1.736 1.938.24 3.622.24zM8.271 8.303a1.73 1.73 0 1 0-3.459.001 1.73 1.73 0 0 0 3.459-.001zm6.458 0a1.729 1.729 0 1 0-3.458 0 1.729 1.729 0 0 0 3.458 0zm6.459 0a1.73 1.73 0 1 0-3.46.002 1.73 1.73 0 0 0 3.46-.002z"/></g></g></g></g></svg>