<svg xmlns="http://www.w3.org/2000/svg" width="1115" height="788" viewBox="0 0 1115 788"><defs><clipPath id="5gx7a"><path fill="#fff" d="M1244 289c0 343.521-278.479 622-622 622S0 632.521 0 289s278.479-622 622-622 622 278.479 622 622z"/></clipPath></defs><g><g clip-path="url(#clip-257:246)" opacity=".1"><path fill="#fff" d="M278-11h1v900h-1z"/></g><g clip-path="url(#clip-257:246)" opacity=".4"><path fill="#fff" d="M279 218h-1v7h-7v1h7v7h1v-7h7v-1h-7z"/></g><g clip-path="url(#clip-257:246)" opacity=".4"><path fill="#fff" d="M680 652h-1v7h-7v1h7v7h1v-7h7v-1h-7z"/></g><g clip-path="url(#clip-257:246)" opacity=".1"><path fill="none" stroke="#fff" stroke-miterlimit="50" stroke-width="2" d="M1244 289c0 343.521-278.479 622-622 622S0 632.521 0 289s278.479-622 622-622 622 278.479 622 622z" clip-path="url(&quot;#5gx7a&quot;)"/></g></g></svg>