<svg xmlns="http://www.w3.org/2000/svg" width="26" height="30" viewBox="0 0 26 30"><g><g><g/><g><g><path fill="#ff4b38" d="M23.62 3.4h-.877v21.55a2.6 2.6 0 0 1-2.597 2.598H4.19v.799c0 .914.742 1.657 1.657 1.657h17.77c.915 0 1.657-.743 1.657-1.657V5.057c0-.915-.74-1.657-1.654-1.657z"/></g><g><path fill="#ff4b38" d="M2.377 26.604A1.658 1.658 0 0 1 .72 24.947V7.59h.576c.047.003.098.006.145.006H5.98a2.336 2.336 0 0 0 2.334-2.334V.723c0-.059-.003-.118-.01-.175V0h11.84c.914 0 1.657.742 1.657 1.657v23.29c0 .914-.743 1.657-1.657 1.657zm9.217-5.633a.783.783 0 0 0 .003-1.566H5.801a.783.783 0 0 0 0 1.566zm5.796-3.997a.784.784 0 0 0 0-1.567H5.8a.783.783 0 0 0 0 1.567zM5.8 11.162a.784.784 0 0 0 0 1.567H17.39a.784.784 0 0 0 0-1.567z"/></g><g><path fill="#ff4b38" d="M1.44 6.662h4.552a1.39 1.39 0 0 0 1.379-1.378V.729A.697.697 0 0 0 6.18.237L.944 5.472a.698.698 0 0 0 .495 1.19z"/></g></g></g></g></svg>