<svg xmlns="http://www.w3.org/2000/svg" width="40" height="39" viewBox="0 0 40 39"><g><g><g><path fill="#ff4b38" d="M2 0h14.92c1.099 0 1.998.9 1.998 2V16.82c0 1.1-.9 2-1.999 2H2c-1.1 0-1.999-.9-1.999-2V2C0 .9.9 0 2 0z"/></g><g><path fill="#fff" d="M8.416 4.23H10.5l4.405 10.353h-2.364l-.94-2.305H7.255l-.94 2.305H4.01zm2.379 6.05L9.429 6.947 8.063 10.28z"/></g></g><g><path fill="#00a8e0" d="M2 20.05h14.92c1.099 0 1.998.9 1.998 2v14.822c0 1.1-.9 1.999-1.999 1.999H2c-1.1 0-1.999-.9-1.999-2V22.05c0-1.1.9-1.999 2-1.999z"/></g><g><g><path fill="#00a8e0" d="M22.3 20.1h14.92c1.098 0 1.998.9 1.998 2V36.92c0 1.1-.9 2-1.999 2H22.3c-1.1 0-1.999-.9-1.999-2V22.1c0-1.1.9-1.999 2-1.999z"/></g><g><path fill="#fff" d="M34.205 24.37v10.28h-2.262v-3.29h-1.777l-2.202 3.29H25.32l2.511-3.672c-1.307-.484-2.203-1.527-2.203-3.216 0-2.129 1.469-3.392 3.877-3.392zm-2.262 4.993V26.41h-2.247c-1.101 0-1.777.5-1.777 1.498 0 .867.632 1.454 1.733 1.454z"/></g></g><g><g><path fill="#ff4b38" d="M22.33 0h14.92c1.098 0 1.998.9 1.998 2V16.82c0 1.1-.9 2-1.999 2H22.33c-1.1 0-1.999-.9-1.999-2V2c0-1.1.9-1.999 2-1.999z"/></g><g><g><path fill="#fff" d="M22.775 10.598a1.13 1.13 0 0 1-.227-.615c-.061-.928.245-.61.248-1.011.003-.422-.147-.87.175-1.019.35-.16.989-.084 1.396-.279.377-.18.754-.37 1.128-.548.39-.187.727-.378 1.163-.513.919-.283 2.047-.292 3.063-.204 1.061.092 1.787.344 2.583.786.368.205.704.41 1.045.632.333.215.227.136.672.172.264.021.503.035.76.072.58.083 2.222.381 2.587.766.328.346.04.882-.091 1.276-.212.635-.059.77-.886.813.068-.36.109-.533.017-.902-.339-1.355-2.23-1.707-2.992-.42-.479.806-.066 1.461-.054 1.607h-6.32c.027-.128.1-.247.134-.396a1.618 1.618 0 0 0-.206-1.246c-.789-1.268-2.725-.886-2.996.57-.076.406.01.543.078.889-.275-.035-1.12-.243-1.277-.43zm6.287-2.554c.013-.226-.07-1.243-.136-1.422-.52-.046-1.412.146-1.847.308-.474.176-1.096.524-1.08 1.11zm2.953-.006c-.017-.308-.008-.239.183-.37-.13-.16-1.007-.622-1.24-.721-.316-.136-1.257-.388-1.643-.31.125.361.2.68.278 1.054.027.13.042.315.107.353z"/></g><g><path fill="#fff" d="M36.031 10.208c.136.742-.39 1.311-.97 1.429-.74.15-1.341-.384-1.449-.979-.135-.745.374-1.31.969-1.432.747-.152 1.34.381 1.45.982zm-1.05 1.037c.394-.077.748-.47.658-.959-.073-.405-.47-.767-.961-.671-1.104.215-.77 1.837.303 1.63z"/></g><g><path fill="#fff" d="M25.576 9.21a1.227 1.227 0 0 1 1.233 1.213c0 .718-.558 1.243-1.233 1.243a1.224 1.224 0 0 1-1.226-1.243c0-.671.56-1.212 1.226-1.213zm-.806 1.42c.092.381.49.737.992.618 1.072-.253.7-1.866-.369-1.616-.385.09-.747.481-.623.997z"/></g></g></g><g><g><path fill="#fff" d="M4.794 35.083l9.832.077.377-.17.054-.208-.323-.422-1.415-.032-.516-.638h.835l.499-.108-.103-.08-.683-.046.085-.327-.18.013-.161.287c-.91-.15-1.769-.259-2.686-.359l-.301.063.094.148-.696.234-.018.09.517-.005.373.121-.002.175-6.447-.324.003.309-.072.006z"/></g><g><path fill="#fff" d="M8.912 23.5L4.73 33.198l4.071.354-.035-2.149z"/></g><g><path fill="#fff" d="M12.561 32.644c-.883-3.3-2.129-6.484-3.324-9.684l-.287 9.72z"/></g></g></g></svg>