<svg xmlns="http://www.w3.org/2000/svg" width="94" height="101" viewBox="0 0 94 101"><defs><linearGradient id="arw4b" x1="47.9" x2="49.17" y1="90.33" y2="14.54" gradientUnits="userSpaceOnUse"><stop offset="0"/><stop offset="1" stop-opacity="0"/></linearGradient><filter id="arw4a" width="216%" height="200%" x="-48%" y="-40%" filterUnits="objectBoundingBox"><feGaussianBlur in="SourceGraphic" result="FeGaussianBlur1386Out" stdDeviation="10 10"/></filter></defs><g><g filter="url(#arw4a)" opacity=".4" transform="rotate(30 50 47.5)"><path fill="url(#arw4b)" d="M19.52 39.18c0-14.36 11.64-26 26-26s26 11.64 26 26c0 19.5-26 46-26 46s-26-24-26-46zm26 7a7 7 0 1 0 0-14 7 7 0 0 0 0 14z"/></g><g><path fill="#ff4b38" d="M1 34C1 19.64 12.64 8 27 8s26 11.64 26 26c0 19.5-26 46-26 46S1 56 1 34zm26 7a7 7 0 1 0 0-14 7 7 0 0 0 0 14z"/></g></g></svg>