<svg xmlns="http://www.w3.org/2000/svg" width="34" height="34" viewBox="0 0 34 34"><g><g><g/><g><g><g><path fill="#ff4b38" d="M12.481 15.532a1.421 1.421 0 1 0 0-2.842 1.421 1.421 0 0 0 0 2.842z"/></g><g><path fill="#ff4b38" d="M21.511 21.302a1.421 1.421 0 1 0 0-2.842 1.421 1.421 0 0 0 0 2.842z"/></g><g><path fill="#ff4b38" d="M33.227 18.878a2.209 2.209 0 0 1-.711 3.24l-.76.424c-.829.46-1.275 1.4-1.1 2.334l.16.857a2.212 2.212 0 0 1-2.048 2.613l-.871.048a2.2 2.2 0 0 0-2.007 1.624l-.23.843a2.218 2.218 0 0 1-2.981 1.463l-.808-.335a2.215 2.215 0 0 0-2.515.592l-.572.655a2.208 2.208 0 0 1-3.316.028l-.578-.648a2.208 2.208 0 0 0-2.522-.557l-.801.341a2.208 2.208 0 0 1-3.003-1.414l-.244-.836a2.22 2.22 0 0 0-2.034-1.595l-.871-.035a2.213 2.213 0 0 1-2.09-2.578l.146-.857c.16-.94-.3-1.874-1.135-2.32l-.767-.411a2.218 2.218 0 0 1-.766-3.233l.501-.71c.55-.78.537-1.819-.02-2.585l-.516-.704a2.21 2.21 0 0 1 .71-3.24l.76-.424a2.209 2.209 0 0 0 1.1-2.334l-.16-.857a2.212 2.212 0 0 1 2.049-2.612l.87-.05a2.2 2.2 0 0 0 2.007-1.623l.23-.843a2.218 2.218 0 0 1 2.982-1.463l.808.335a2.215 2.215 0 0 0 2.515-.592l.571-.655a2.208 2.208 0 0 1 3.317-.028l.578.648c.634.71 1.65.933 2.522.557l.8-.341a2.208 2.208 0 0 1 3.004 1.414l.243.836a2.22 2.22 0 0 0 2.035 1.595l.87.035a2.213 2.213 0 0 1 2.09 2.578l-.146.857c-.16.94.3 1.874 1.136 2.32l.766.411a2.218 2.218 0 0 1 .767 3.233l-.502.71c-.55.78-.536 1.818.02 2.585zM12.472 17.54a3.425 3.425 0 0 0 3.428-3.428 3.425 3.425 0 0 0-3.428-3.427 3.425 3.425 0 0 0-3.427 3.427 3.43 3.43 0 0 0 3.427 3.428zm9.656-5.42a.838.838 0 0 0-.111-1.178.838.838 0 0 0-1.178.112l-8.994 10.833a.838.838 0 0 0 .112 1.178.838.838 0 0 0 1.177-.112zm2.808 7.76a3.425 3.425 0 0 0-3.428-3.427 3.425 3.425 0 0 0-3.427 3.428 3.425 3.425 0 0 0 3.427 3.427 3.425 3.425 0 0 0 3.428-3.427z"/></g></g></g></g></g></svg>