<svg xmlns="http://www.w3.org/2000/svg" width="40" height="34" viewBox="0 0 40 34"><g><g><g/><g><g><g><path fill="#a9a9a9" d="M24.797 3.86l-2.176-2.176A3.44 3.44 0 0 0 20.175.67c-.925 0-1.794.36-2.448 1.014L11.08 8.33h1.225c3.553 0 6.451 2.85 6.535 6.382l1.9-1.899 4.057-4.058c.04-.04.077-.08.114-.12l.04-.044c.022-.026.045-.052.066-.079l.047-.057a3.61 3.61 0 0 0 .193-.27l.03-.046a3.467 3.467 0 0 0-.49-4.28z"/></g></g></g><g><g><g><path fill="#a9a9a9" d="M36.538 24.486A3.466 3.466 0 0 1 40 27.948v1.923a3.465 3.465 0 0 1-3.461 3.461H3.462A3.465 3.465 0 0 1 0 29.871v-1.923a3.465 3.465 0 0 1 3.462-3.462H5v-9.615a4.236 4.236 0 0 1 3.978-4.223h.01c.08-.005.161-.008.243-.008h3.077a4.236 4.236 0 0 1 4.23 4.23v9.616zm-23.846-8.142c0-1.06-.862-1.923-1.923-1.923-1.06 0-1.923.863-1.923 1.923s.863 1.923 1.923 1.923 1.923-.862 1.923-1.923z"/></g></g></g><g><g><g><path fill="#a9a9a9" d="M34.09 16.375l-2.176-2.176a1.154 1.154 0 0 0-1.042-.315l-2.114.422-1.597-1.596.816-.816a1.154 1.154 0 0 0-.006-1.638l-.797-.786a5.774 5.774 0 0 1-.746.917l-4.058 4.058.712.712a1.15 1.15 0 0 0 1.632 0l.815-.816 1.597 1.597-.423 2.114c-.075.379.043.77.316 1.042l2.176 2.176a1.15 1.15 0 0 0 1.631 0c.451-.45.451-1.181 0-1.632L29.088 17.9l.272-1.36 1.36-.271 1.738 1.738a1.15 1.15 0 0 0 1.632 0c.45-.45.45-1.18 0-1.631z"/></g></g></g></g></g></svg>