<svg xmlns="http://www.w3.org/2000/svg" width="40" height="40" viewBox="0 0 40 40"><g><g><path fill="#a9a9a9" d="M20.008 0C37.062 0 45.98 19.79 35.544 32.61l.556.556c1.124 1.124.61 3.05-.928 3.463l-5.312 1.423c-1.53.41-2.948-.99-2.535-2.535l1.423-5.312c.412-1.536 2.337-2.053 3.463-.928l.386.386c7.877-10.231.741-25.523-12.59-25.523a2.07 2.07 0 0 1 0-4.14zM7.418 10.337C-.459 20.568 6.677 35.86 20.008 35.86a2.07 2.07 0 1 1 0 4.14C2.953 40-5.965 20.21 4.47 7.39l-.555-.556c-1.124-1.124-.61-3.05.928-3.462l5.311-1.424c1.536-.411 2.947.997 2.535 2.535l-1.423 5.312c-.414 1.545-2.342 2.049-3.463.928zm14.445-1.44c1.63 0 3.26.319 4.663 1.477 1.459 1.216 2.374 3.098 2.374 5.414 0 2.375-1.001 4.344-2.575 5.56-1.373 1.071-2.917 1.332-4.462 1.332h-4.405v1.779h2.827a1.945 1.945 0 1 1 0 3.89h-2.827v.752c0 1.13-.973 2.027-2.06 2.027-1.144 0-2.06-.897-2.06-2.027v-.939a1.945 1.945 0 0 1 0-3.516V10.924c0-1.13.916-2.027 2.06-2.027zm1.63 4.228c-.6-.435-1.344-.58-2.174-.58h-3.861v6.487h3.776c.8 0 1.602-.145 2.202-.55.801-.493 1.288-1.39 1.288-2.693 0-1.303-.487-2.172-1.23-2.664z"/></g></g></svg>