<svg xmlns="http://www.w3.org/2000/svg" width="40" height="30" viewBox="0 0 40 30"><g><g><g/><g><g><g><path fill="#a9a9a9" d="M40 25.436a3.92 3.92 0 0 1-3.915 3.915h-19.12a1.305 1.305 0 0 1 0-2.61h3.916v-3.236c-3.06-1.257-5.22-4.269-5.22-7.776 0-.6-.406-1.121-.988-1.266h-.001L2.61 11.447v.939a1.305 1.305 0 0 1-2.61 0v-7.83a1.305 1.305 0 0 1 2.61 0V5.86h20.881V3.25H11.746a1.305 1.305 0 0 1 0-2.61h26.101a1.305 1.305 0 0 1 0 2.61H26.101v2.61h.775c6.477 0 11.793 5.058 12.233 11.428.068.272.043.706.043.816a5.977 5.977 0 0 1-1.759 4.265 5.942 5.942 0 0 1-3.461 1.71v2.662h2.153c.72 0 1.305-.585 1.305-1.305a1.305 1.305 0 0 1 2.61 0zM26.101 8.47v6.526c0 .72.586 1.305 1.305 1.305h8.955c-.862-4.453-4.788-7.83-9.485-7.83zm5.22 18.271v-2.61h-7.258c-.192 0-.383-.007-.572-.02v2.63z"/></g></g></g></g></g></svg>