<svg xmlns="http://www.w3.org/2000/svg" width="44" height="24" viewBox="0 0 44 24"><g><g><g/><g><g><g><path fill="#fff" d="M42.908 15.931a1.689 1.689 0 0 1-.598 3.269H38.8c-.609 2.287-2.679 3.987-5.156 3.987-2.478 0-4.544-1.7-5.153-3.987H14.193c-.607 2.287-2.678 3.987-5.155 3.987-2.476 0-4.545-1.7-5.153-3.987H1.69C.755 19.2 0 18.444 0 17.51c0-.724.457-1.335 1.096-1.579v-2.176c0-2.708 1.961-4.957 4.538-5.425l1.11-6.121A1.69 1.69 0 0 1 8.41.82h19.302c.603 0 1.163.322 1.465.846l3.786 6.564h4.417c3.05 0 5.529 2.479 5.529 5.525zm-31.922 1.904a1.959 1.959 0 0 0-3.918 0 1.96 1.96 0 1 0 3.918 0zm5.967-13.632H9.818l-.73 4.028h7.865zM29.059 8.23l-2.324-4.028h-6.401V8.23zm6.548 9.604a1.958 1.958 0 1 0-3.918 0 1.96 1.96 0 1 0 3.918 0z"/></g></g></g></g></g></svg>