<svg xmlns="http://www.w3.org/2000/svg" width="30" height="35" viewBox="0 0 30 35"><g><g><g/><g><path fill="#a9a9a9" d="M17.911 1.138c2.748 7.415 5.496 14.83 7.518 22.482L16 23.714 16.75-2c.386 1.047.774 2.092 1.161 3.138zm-4.157 19.753l.094 5.68L3 25.635 14.143 0zM0 32.011l.192-.016-.008-.76 17.273.799.005-.432-.999-.299c-.46.005-.923.008-1.384.012l.049-.221 1.865-.575-.253-.365.806-.154c2.458.246 4.757.515 7.196.885l.434-.708.48-.033-.227.807 1.829.111.276.2-1.335.265h-2.24l1.385 1.57 3.79.077.866 1.04-.145.509-1.01.42-26.343-.189z"/></g></g></g></svg>