<svg xmlns="http://www.w3.org/2000/svg" width="40" height="28" viewBox="0 0 40 28"><g><g><g/><g><g><path fill="#a9a9a9" d="M39.475 17.325c.33.247.526.634.525 1.048v5.136c0 .724-.587 1.312-1.312 1.312h-1.504c-.551 1.644-2.09 2.841-3.919 2.841-1.827 0-3.367-1.197-3.92-2.841H12.186c-.552 1.644-2.091 2.841-3.92 2.841-1.828 0-3.367-1.197-3.92-2.841H1.311A1.311 1.311 0 0 1 0 23.509V1.651C0 .928.587.34 1.311.34h20.547c.496 0 .951.28 1.172.725l1.714 3.428h6.84c.725 0 1.311.588 1.311 1.311v1.918l2.927 6.861zM9.798 23.509a1.53 1.53 0 1 0-3.06 0 1.53 1.53 0 0 0 3.06 0zm23.099-8.668c.059 0 .111-.02.164-.04a.45.45 0 0 0 .2-.157.443.443 0 0 0 .036-.416l-2.472-5.683a.436.436 0 0 0-.4-.263h-4.632a.438.438 0 0 0-.437.437v5.684c0 .24.198.437.437.437zm1.891 8.668a1.53 1.53 0 1 0-3.059 0 1.53 1.53 0 0 0 3.06 0z"/></g></g></g></g></svg>