<svg xmlns="http://www.w3.org/2000/svg" width="44" height="32" viewBox="0 0 44 32"><g><g><g/><g><g><g><path fill="#a9a9a9" d="M38.82 17.206C41.7 17.37 44 19.741 44 22.66v3.73c0 .884-.714 1.598-1.598 1.598h-2.51c-.541 2.36-2.648 4.128-5.172 4.128-2.52 0-4.624-1.767-5.167-4.128H14.919c-.541 2.36-2.648 4.128-5.17 4.128-2.521 0-4.627-1.767-5.168-4.128H3.4A1.596 1.596 0 0 1 1.8 26.39v-7.62c0-.881.715-1.597 1.598-1.597h8.675v-7.04l-3.728-4.3V9.34c0 2.3-1.872 4.172-4.173 4.172A4.178 4.178 0 0 1 0 9.341a1.598 1.598 0 1 1 3.195 0 .978.978 0 0 0 1.954 0V1.55l.001-.006V1.54v-.003a1.514 1.514 0 0 1 .794-1.49c.547-.291 1.107-.178 1.689.175l.005.004.005.003 9.58 6.384c.445.296.71.795.71 1.328v9.235h5.491V9.743c0-.883.714-1.598 1.598-1.598h7.768a1.6 1.6 0 0 1 1.393.816zm-26.972 9.6a2.11 2.11 0 1 0-4.218.002 2.11 2.11 0 0 0 4.218-.001zm23.29-9.632l-3.282-5.834H26.62v5.834zm1.703 9.633a2.109 2.109 0 0 0-2.107-2.109 2.109 2.109 0 0 0 0 4.216 2.107 2.107 0 0 0 2.107-2.107z"/></g></g></g></g></g></svg>